<svg width="85" height="26" viewBox="0 0 85 26" fill="none" xmlns="http://www.w3.org/2000/svg">
<path d="M10.3761 20.297C8.95412 20.297 7.63112 20.054 6.40712 19.568C5.20112 19.064 4.13912 18.362 3.22112 17.462C2.32112 16.562 1.61912 15.518 1.11512 14.33C0.611117 13.124 0.359117 11.828 0.359117 10.442C0.359117 9.056 0.611117 7.769 1.11512 6.581C1.61912 5.375 2.32112 4.331 3.22112 3.449C4.12112 2.567 5.17412 1.883 6.38012 1.397C7.60412 0.893 8.92712 0.641 10.3491 0.641C11.8611 0.641 13.2021 0.883999 14.3721 1.37C15.5601 1.856 16.5951 2.522 17.4771 3.368L14.6421 6.23C14.1381 5.69 13.5261 5.267 12.8061 4.961C12.1041 4.655 11.2851 4.502 10.3491 4.502C9.52112 4.502 8.75612 4.646 8.05412 4.934C7.37012 5.204 6.77612 5.6 6.27212 6.122C5.78612 6.644 5.39912 7.274 5.11112 8.012C4.84112 8.75 4.70612 9.56 4.70612 10.442C4.70612 11.342 4.84112 12.161 5.11112 12.899C5.39912 13.637 5.78612 14.267 6.27212 14.789C6.77612 15.311 7.37012 15.716 8.05412 16.004C8.75612 16.292 9.52112 16.436 10.3491 16.436C11.3211 16.436 12.1671 16.283 12.8871 15.977C13.6071 15.671 14.2281 15.248 14.7501 14.708L17.6121 17.57C16.6941 18.416 15.6411 19.082 14.4531 19.568C13.2831 20.054 11.9241 20.297 10.3761 20.297ZM19.5684 20V6.878H23.6994V20H19.5684ZM23.6994 12.791L21.9714 11.441C22.3134 9.911 22.8894 8.723 23.6994 7.877C24.5094 7.031 25.6344 6.608 27.0744 6.608C27.7044 6.608 28.2534 6.707 28.7214 6.905C29.2074 7.085 29.6304 7.373 29.9904 7.769L27.5334 10.874C27.3534 10.676 27.1284 10.523 26.8584 10.415C26.5884 10.307 26.2824 10.253 25.9404 10.253C25.2564 10.253 24.7074 10.469 24.2934 10.901C23.8974 11.315 23.6994 11.945 23.6994 12.791ZM35.0353 20.054L29.6353 6.878H34.0903L37.5193 17.327H35.8723L39.3823 6.878H43.8373L38.2213 20.054H35.0353ZM31.6603 25.535L35.6023 17.03L38.2213 20.054L35.8993 25.535H31.6603ZM52.6518 20.27C51.7698 20.27 50.9598 20.099 50.2218 19.757C49.4838 19.415 48.8808 18.947 48.4128 18.353C47.9448 17.741 47.6748 17.048 47.6028 16.274V10.739C47.6748 9.965 47.9448 9.263 48.4128 8.633C48.8808 8.003 49.4838 7.508 50.2218 7.148C50.9598 6.788 51.7698 6.608 52.6518 6.608C53.8938 6.608 54.9918 6.905 55.9458 7.499C56.9178 8.093 57.6738 8.903 58.2138 9.929C58.7718 10.955 59.0508 12.125 59.0508 13.439C59.0508 14.753 58.7718 15.923 58.2138 16.949C57.6738 17.975 56.9178 18.785 55.9458 19.379C54.9918 19.973 53.8938 20.27 52.6518 20.27ZM51.8958 16.544C52.4898 16.544 53.0028 16.409 53.4348 16.139C53.8848 15.869 54.2358 15.5 54.4878 15.032C54.7398 14.564 54.8658 14.033 54.8658 13.439C54.8658 12.827 54.7398 12.287 54.4878 11.819C54.2358 11.351 53.8848 10.991 53.4348 10.739C53.0028 10.469 52.4988 10.334 51.9228 10.334C51.3468 10.334 50.8338 10.469 50.3838 10.739C49.9518 10.991 49.6098 11.351 49.3578 11.819C49.1058 12.287 48.9798 12.827 48.9798 13.439C48.9798 14.033 49.0968 14.564 49.3308 15.032C49.5828 15.5 49.9338 15.869 50.3838 16.139C50.8338 16.409 51.3378 16.544 51.8958 16.544ZM45.0918 25.535V6.878H49.2228V10.253L48.5478 13.439L49.1688 16.625V25.535H45.0918ZM62.7487 20V1.451H66.8797V20H62.7487ZM59.7787 10.388V6.878H69.8497V10.388H59.7787ZM77.7242 20.297C76.3742 20.297 75.1502 20 74.0522 19.406C72.9722 18.794 72.1172 17.966 71.4872 16.922C70.8572 15.878 70.5422 14.708 70.5422 13.412C70.5422 12.116 70.8572 10.955 71.4872 9.929C72.1172 8.903 72.9722 8.093 74.0522 7.499C75.1322 6.887 76.3562 6.581 77.7242 6.581C79.0922 6.581 80.3162 6.878 81.3962 7.472C82.4762 8.066 83.3312 8.885 83.9612 9.929C84.5912 10.955 84.9062 12.116 84.9062 13.412C84.9062 14.708 84.5912 15.878 83.9612 16.922C83.3312 17.966 82.4762 18.794 81.3962 19.406C80.3162 20 79.0922 20.297 77.7242 20.297ZM77.7242 16.544C78.3182 16.544 78.8402 16.418 79.2902 16.166C79.7402 15.896 80.0822 15.527 80.3162 15.059C80.5682 14.573 80.6942 14.024 80.6942 13.412C80.6942 12.8 80.5682 12.269 80.3162 11.819C80.0642 11.351 79.7132 10.991 79.2632 10.739C78.8312 10.469 78.3182 10.334 77.7242 10.334C77.1482 10.334 76.6352 10.469 76.1852 10.739C75.7352 10.991 75.3842 11.351 75.1322 11.819C74.8802 12.287 74.7542 12.827 74.7542 13.439C74.7542 14.033 74.8802 14.573 75.1322 15.059C75.3842 15.527 75.7352 15.896 76.1852 16.166C76.6352 16.418 77.1482 16.544 77.7242 16.544Z" fill="white"/>
</svg>
